<svg width="4" height="20" viewBox="0 0 4 20" fill="none" xmlns="http://www.w3.org/2000/svg">
<path d="M2.01177 0.497613C1.65339 0.485406 1.30313 0.607092 1.028 0.839394C0.893861 0.965289 0.789216 1.11982 0.721682 1.29174C0.654148 1.46366 0.625426 1.64864 0.637611 1.83319V18.683C0.624565 18.8657 0.652948 19.0489 0.720598 19.2189C0.788247 19.3888 0.893379 19.5409 1.028 19.6636C1.30674 19.8877 1.65579 20.0034 2.01177 19.9896C2.36477 20.0049 2.71107 19.8889 2.98513 19.6636C3.11589 19.5385 3.21755 19.3857 3.28281 19.2161C3.34806 19.0465 3.37528 18.8644 3.3625 18.683V1.83319C3.37453 1.64982 3.34702 1.466 3.28186 1.29442C3.21671 1.12284 3.11547 0.967592 2.98513 0.839394C2.71469 0.605998 2.3672 0.483981 2.01177 0.497613Z" fill="#2963A3"/>
</svg>
