<svg width="13" height="14" viewBox="0 0 13 14" fill="none" xmlns="http://www.w3.org/2000/svg">
<path d="M9.50713 12.5118C9.49915 12.6807 9.52629 12.8493 9.58681 13.0069C9.64732 13.1645 9.73987 13.3075 9.85847 13.4267C9.98198 13.5416 10.1267 13.6306 10.2844 13.6888C10.442 13.747 10.6095 13.7732 10.7772 13.7659C11.1428 13.7818 11.5002 13.6536 11.774 13.4083C11.9002 13.2915 12.0001 13.1486 12.067 12.9894C12.1339 12.8302 12.1662 12.6584 12.1618 12.4855V1.3908C12.1708 1.21084 12.1431 1.03093 12.0804 0.862232C12.0178 0.693535 11.9214 0.539656 11.7974 0.410152C11.5163 0.179307 11.1644 0.0543847 10.8022 0.0567829C10.4399 0.0591811 10.0897 0.188751 9.81163 0.423298C9.68562 0.549219 9.58698 0.700291 9.52201 0.866874C9.45703 1.03346 9.42715 1.21189 9.43426 1.3908V7.79787C9.43426 8.94064 9.11501 9.85819 8.47651 10.5505C8.14923 10.8971 7.75227 11.1689 7.31233 11.3476C6.8724 11.5262 6.39968 11.6077 5.92599 11.5864C5.02897 11.5864 4.36358 11.3322 3.92982 10.8239C3.49605 10.3157 3.28004 9.52693 3.28178 8.45777V1.3908C3.29082 1.21084 3.26314 1.03093 3.20046 0.862232C3.13778 0.693535 3.04144 0.539656 2.91742 0.410152C2.78388 0.287248 2.62737 0.192539 2.45709 0.131589C2.28681 0.0706386 2.10619 0.0446762 1.92584 0.0552264C1.74227 0.044194 1.55835 0.0698661 1.38462 0.130771C1.2109 0.191677 1.05077 0.286617 0.913436 0.410152C0.788238 0.538814 0.691129 0.692558 0.628371 0.861466C0.565613 1.03037 0.538599 1.2107 0.549075 1.3908V8.48932C0.549075 12.0508 2.15052 13.8316 5.35342 13.8316C6.20422 13.8433 7.0441 13.6371 7.79464 13.2322C8.52297 12.833 9.11863 12.2258 9.50713 11.4865V12.5118Z" fill="#2963A3"/>
</svg>
