<svg width="14" height="19" viewBox="0 0 14 19" fill="none" xmlns="http://www.w3.org/2000/svg">
<path d="M13.3302 1.2804C13.3303 1.11943 13.2953 0.960409 13.2279 0.814578C13.1604 0.668747 13.0621 0.539666 12.9398 0.436463C12.6952 0.205117 12.3717 0.0779848 12.0367 0.0815367C11.8038 0.0777518 11.5746 0.140646 11.3756 0.262943C11.1562 0.404074 10.9896 0.614972 10.902 0.862374L6.73786 10.2114L2.56334 0.84397C2.47188 0.611079 2.31107 0.412633 2.10314 0.276053C1.89521 0.139474 1.65042 0.0715042 1.40259 0.0815367C1.04757 0.079776 0.703499 0.205576 0.431833 0.436463C0.296375 0.538044 0.186622 0.670551 0.111538 0.823162C0.036454 0.975774 -0.00183214 1.14416 -0.000193683 1.31458C-0.00164511 1.48194 0.034856 1.64742 0.106512 1.79833L5.31166 12.9772L3.45342 16.9839C3.3752 17.1552 3.3293 17.3398 3.31809 17.5281C3.31575 17.6859 3.35009 17.8421 3.41834 17.9841C3.48659 18.1261 3.58685 18.25 3.71107 18.3458C3.95587 18.5555 4.26716 18.6694 4.58814 18.6665C4.82369 18.6655 5.05368 18.5941 5.24919 18.4614C5.46262 18.3199 5.62866 18.1164 5.72546 17.8778L13.2235 1.79833C13.2944 1.63509 13.3308 1.45867 13.3302 1.2804Z" fill="#2963A3"/>
</svg>
