<svg width="12" height="20" viewBox="0 0 12 20" fill="none" xmlns="http://www.w3.org/2000/svg">
<path d="M11.5131 17.6997L6.22471 12.9831L11.0291 8.53998C11.1683 8.42289 11.2814 8.27727 11.3608 8.11275C11.4402 7.94824 11.4841 7.76857 11.4897 7.58563C11.4811 7.24834 11.3445 6.9273 11.1081 6.68896C10.8716 6.45063 10.5536 6.31325 10.2197 6.30527C9.8832 6.32705 9.56642 6.47302 9.32957 6.7154L3.1771 12.5204V1.8332C3.18965 1.64978 3.16239 1.46581 3.0972 1.29415C3.03202 1.12249 2.93049 0.967288 2.79972 0.83941C2.53035 0.605955 2.18363 0.483883 1.82897 0.497629C1.46977 0.485266 1.11865 0.606932 0.842588 0.83941C0.708452 0.965305 0.603807 1.11984 0.536273 1.29176C0.468739 1.46368 0.440017 1.64865 0.452202 1.8332V18.6593C0.439994 18.8443 0.468694 19.0296 0.536217 19.202C0.603741 19.3743 0.708395 19.5293 0.842588 19.6557C1.11902 19.8873 1.47011 20.008 1.82897 19.9949C2.18328 20.0094 2.52996 19.8882 2.79972 19.6557C2.93055 19.5273 3.03209 19.3717 3.09727 19.1996C3.16245 19.0275 3.18969 18.8431 3.1771 18.6593V13.6115L9.89694 19.6084C10.1412 19.8532 10.4716 19.9903 10.8156 19.9896C10.9738 19.9905 11.1303 19.9568 11.2745 19.891C11.4187 19.8253 11.5471 19.7289 11.6511 19.6084C11.8844 19.3667 12.0135 19.0416 12.0102 18.704C12.0095 18.5092 11.9643 18.3173 11.8781 18.1431C11.7918 17.9689 11.667 17.8171 11.5131 17.6997Z" fill="#2963A3"/>
</svg>
