<svg width="11" height="18" viewBox="0 0 11 18" fill="none" xmlns="http://www.w3.org/2000/svg">
<path d="M9.3551 15.8917L8.59775 15.8364C7.87944 15.7821 7.34418 15.5551 6.99196 15.1555C6.64322 14.7559 6.47145 14.1275 6.47145 13.2731V6.67672H9.13388C9.44826 6.70068 9.76039 6.60712 10.0109 6.41382C10.1171 6.3137 10.2 6.19102 10.2536 6.05463C10.3071 5.91823 10.33 5.77152 10.3207 5.62509C10.329 5.47878 10.3055 5.33239 10.2521 5.19617C10.1986 5.05994 10.1163 4.93715 10.0109 4.83637C9.76468 4.6328 9.45151 4.53047 9.13388 4.5498H6.46104V1.74194C6.47116 1.56073 6.44272 1.37944 6.37762 1.21027C6.31252 1.04111 6.21229 0.888012 6.08366 0.761291C5.80923 0.515363 5.45076 0.387109 5.08428 0.403736C4.90521 0.394248 4.72606 0.420731 4.5572 0.481655C4.38833 0.542578 4.23311 0.63673 4.1005 0.758662C3.97531 0.887323 3.8782 1.04107 3.81544 1.20998C3.75268 1.37888 3.72567 1.55921 3.73614 1.73931V4.5498H2.11734C1.79965 4.52995 1.48629 4.63233 1.24028 4.83637C1.13405 4.93657 1.05098 5.0592 0.997005 5.19553C0.943025 5.33185 0.919454 5.47852 0.927968 5.62509C0.927968 6.32618 1.32443 6.67672 2.11734 6.67672H3.73614V13.0838C3.73614 14.6271 4.0953 15.797 4.81621 16.5857C5.53712 17.3745 6.6224 17.8267 8.07984 17.9371L8.80856 17.9897C9.23208 18.0514 9.66393 17.9701 10.037 17.7583C10.1722 17.6685 10.282 17.5447 10.3555 17.399C10.4289 17.2533 10.4636 17.0908 10.456 16.9275C10.4634 16.7955 10.4441 16.6633 10.3994 16.539C10.3547 16.4147 10.2854 16.3009 10.1957 16.2045C9.95901 16.0065 9.66242 15.8961 9.3551 15.8917Z" fill="#2963A3"/>
</svg>
