<svg width="16" height="14" viewBox="0 0 16 14" fill="none" xmlns="http://www.w3.org/2000/svg">
<path d="M12.6094 1.02299C11.5657 0.442254 10.3887 0.150222 9.19743 0.176425H6.98785C5.79589 0.151497 4.61838 0.443434 3.57328 1.02299C2.59767 1.58287 1.80868 2.4229 1.30643 3.43649C0.760415 4.57769 0.492701 5.83434 0.525663 7.10142C0.49524 8.36067 0.76292 9.60904 1.30643 10.7427C1.80949 11.755 2.59834 12.594 3.57328 13.1536C4.61862 13.7322 5.79612 14.0232 6.98785 13.9975H13.9836C15.1131 13.9975 15.6726 13.1772 15.6726 10.9478V7.10142C15.7029 5.83285 15.4297 4.57563 14.8762 3.43649C14.3756 2.42179 13.5862 1.58135 12.6094 1.02299ZM12.8879 11.818H6.98785C5.78546 11.818 4.86328 11.4184 4.22132 10.6191C3.57935 9.81989 3.26097 8.64732 3.26617 7.10142C3.26617 5.57305 3.58976 4.40574 4.23693 3.59949C4.8841 2.79324 5.80108 2.38836 6.98785 2.38485H9.19743C10.3842 2.38485 11.302 2.78973 11.951 3.59949C12.5999 4.40925 12.9261 5.57656 12.9295 7.10142C12.9295 8.64469 12.8879 11.818 12.8879 11.818Z" fill="#2963A3"/>
</svg>
