<svg width="16" height="14" viewBox="0 0 16 14" fill="none" xmlns="http://www.w3.org/2000/svg">
<path d="M2.33431 13.8212H9.33003C10.5218 13.8473 11.6994 13.5563 12.7446 12.9773C13.719 12.417 14.5076 11.5782 15.0114 10.5664C15.5603 9.4342 15.8325 8.18555 15.8052 6.92515C15.8357 5.65685 15.5634 4.39979 15.0114 3.26021C14.5092 2.24593 13.7203 1.40505 12.7446 0.844087C11.6994 0.265099 10.5218 -0.0259512 9.33003 0.000152312H7.12044C5.9295 -0.0259836 4.75274 0.265083 3.70847 0.844087C2.7316 1.40353 1.94228 2.24482 1.44163 3.26021C0.888773 4.39956 0.615612 5.65664 0.645244 6.92515V10.7794C0.645244 13.001 1.2074 13.8212 2.33431 13.8212ZM4.36952 3.41796C5.01843 2.61171 5.9354 2.20858 7.12044 2.20858H9.33003C10.5168 2.20858 11.4346 2.61346 12.0835 3.42322C12.7325 4.23297 13.056 5.40028 13.0543 6.92515C13.0543 8.4693 12.7351 9.64099 12.0966 10.4402C11.4581 11.2395 10.5359 11.64 9.33003 11.6417H3.43C3.43 11.6417 3.39616 8.46842 3.39616 6.92515C3.39616 5.38188 3.72148 4.23034 4.36952 3.41796Z" fill="#2963A3"/>
</svg>
